<svg width="180" height="180" viewBox="0 0 180 180" fill="none" xmlns="http://www.w3.org/2000/svg">
  <defs>
    <linearGradient id="rTeal" x1="0" y1="0" x2="0.75" y2="1">
      <stop offset="0" stop-color="#1ad2ea"/>
      <stop offset="0.35" stop-color="#00afc8"/>
      <stop offset="0.7" stop-color="#008ea6"/>
      <stop offset="1" stop-color="#00596a"/>
    </linearGradient>
    <linearGradient id="rBack" x1="0" y1="0" x2="0.6" y2="1">
      <stop offset="0" stop-color="#12495a"/>
      <stop offset="1" stop-color="#07252e"/>
    </linearGradient>
    <linearGradient id="rGold" x1="0" y1="0" x2="1" y2="1">
      <stop offset="0" stop-color="#f6e3a3"/>
      <stop offset="0.45" stop-color="#d4af37"/>
      <stop offset="1" stop-color="#9c7a1e"/>
    </linearGradient>
    <linearGradient id="rShade" x1="0" y1="0" x2="0" y2="1">
      <stop offset="0.6" stop-color="#000000" stop-opacity="0"/>
      <stop offset="1" stop-color="#001b21" stop-opacity="0.28"/>
    </linearGradient>
    <radialGradient id="rHolo" cx="0.35" cy="0.3" r="0.9">
      <stop offset="0" stop-color="#fdf3cd"/>
      <stop offset="0.55" stop-color="#d4af37"/>
      <stop offset="1" stop-color="#8a6a1c"/>
    </radialGradient>
    <clipPath id="rClip"><rect x="22" y="58" width="126" height="80" rx="11"/></clipPath>
    <filter id="rDrop" x="-30%" y="-30%" width="160%" height="160%">
      <feDropShadow dx="0" dy="6" stdDeviation="6" flood-color="#022c36" flood-opacity="0.35"/>
    </filter>
  </defs>
  <g transform="rotate(-8 90 90)">
    <rect x="36" y="42" width="126" height="80" rx="11" fill="url(#rBack)" stroke="#1b5568" stroke-width="1"/>
    <g filter="url(#rDrop)">
      <rect x="22" y="58" width="126" height="80" rx="11" fill="url(#rTeal)"/>
    </g>
    <rect x="22" y="58" width="126" height="80" rx="11" fill="url(#rShade)"/>
    <polygon points="22,58 108,58 60,138 22,138" fill="#ffffff" opacity="0.10" clip-path="url(#rClip)"/>
    <polygon points="112,58 126,58 78,138 64,138" fill="#ffffff" opacity="0.16" clip-path="url(#rClip)"/>
    <rect x="22.75" y="58.75" width="124.5" height="78.5" rx="10.4" fill="none" stroke="#ffffff" stroke-opacity="0.35" stroke-width="1.5"/>
    <g>
      <rect x="36" y="72" width="26" height="20" rx="4" fill="url(#rGold)" stroke="#8a6a1c" stroke-width="0.8"/>
      <path d="M36 78.5 H45 M36 85.5 H45 M53 78.5 H62 M53 85.5 H62 M45 72 V92 M53 72 V92" stroke="#8a6a1c" stroke-width="1.1" fill="none"/>
      <rect x="45" y="78.5" width="8" height="7" rx="1.5" fill="none" stroke="#8a6a1c" stroke-width="1.1"/>
    </g>
    <g fill="#ffffff" opacity="0.9">
      <circle cx="38" cy="108" r="2"/><circle cx="45" cy="108" r="2"/><circle cx="52" cy="108" r="2"/><circle cx="59" cy="108" r="2"/>
      <circle cx="72" cy="108" r="2"/><circle cx="79" cy="108" r="2"/><circle cx="86" cy="108" r="2"/><circle cx="93" cy="108" r="2"/>
      <circle cx="106" cy="108" r="2"/><circle cx="113" cy="108" r="2"/><circle cx="120" cy="108" r="2"/><circle cx="127" cy="108" r="2"/>
    </g>
    <text x="36" y="129" font-family="Arial, Helvetica, sans-serif" font-weight="800" font-size="15" fill="#ffffff" letter-spacing="3">PVC</text>
    <circle cx="132" cy="123" r="8.5" fill="url(#rHolo)" opacity="0.95"/>
  </g>
</svg>
